<svg id="Layer_1" data-name="Layer 1" xmlns="http://www.w3.org/2000/svg" xmlns:xlink="http://www.w3.org/1999/xlink" viewBox="0 0 384 512"><defs><style>.cls-1{fill:url(#linear-gradient);}</style><linearGradient id="linear-gradient" x1="192" y1="-49.33" x2="192" y2="462.67" gradientUnits="userSpaceOnUse"><stop offset="0" stop-color="#29f39a"/><stop offset="0.18" stop-color="#27eea0"/><stop offset="0.4" stop-color="#20e0b0"/><stop offset="0.66" stop-color="#15caca"/><stop offset="0.93" stop-color="#06aaee"/><stop offset="1" stop-color="#02a1f9"/></linearGradient></defs><path class="cls-1" d="M384,80V311.31h0a20,20,0,0,1-40,0h0V80a40,40,0,0,0-40-40H80A40,40,0,0,0,40,80V432a40,40,0,0,0,40,40H304c22.89,0,40-12.8,40-24.25V403.5h0a20,20,0,0,1,40,0h0v44.25c0,18-9.39,35.28-25.75,47.35C343.47,506,324.2,512,304,512H80A80.09,80.09,0,0,1,0,432V80A80.09,80.09,0,0,1,80,0H304A80.09,80.09,0,0,1,384,80ZM264,432V291l-72-72-72,72V432H80V80h29.6L120,90.4v0l72,72,72-72v0L274.4,80H304V432Zm0-285L220.28,190.7,264,234.42Zm-144,0v87.44l43.72-43.72Z"/></svg>